<?xml version="1.0" encoding="UTF-8"?><svg id="_레이어_1" xmlns="http://www.w3.org/2000/svg" viewBox="0 0 167.35 88.46"><defs><style>.cls-1{fill:#231815;}</style></defs><g><path class="cls-1" d="M38.81,63.13H15.4l5.77-9.28h14.41l-9.14-26.23-14.91,42.61H0L15.68,25.51c2.3-6.23,5.88-9.38,10.76-9.42,4.88,.05,8.44,3.19,10.69,9.42l15.75,44.72h-11.53l-2.53-7.1Z"/><path class="cls-1" d="M103.44,16.79h10.76v53.44h-10.76V16.79Z"/><path class="cls-1" d="M122.77,32.05c0-4.31,2.01-7.97,6.05-10.97,3.89-2.86,8.53-4.29,13.92-4.29h7.17c4.36,0,8.58,1.01,12.66,3.02,1.69,.89,3.05,1.83,4.08,2.81l-9.42,7.24c-1.55-2.16-3.66-3.4-6.33-3.73-.33-.05-.66-.07-.98-.07h-7.17c-3.52,0-6.16,.98-7.95,2.95-.8,.98-1.2,1.99-1.2,3.02,0,1.83,1.94,3.4,5.84,4.71,1.22,.42,3.28,1.01,6.19,1.76,7.03,1.83,11.95,3.61,14.77,5.34,4.59,2.81,6.91,6.52,6.96,11.11,0,4.27-2.06,7.9-6.19,10.9-4.08,2.91-8.91,4.36-14.48,4.36h-7.17c-4.55,0-8.95-1.01-13.22-3.02-1.78-.89-3.19-1.83-4.22-2.81l9.28-7.17c1.64,2.06,3.94,3.28,6.89,3.66,.47,.05,.89,.07,1.27,.07h7.17c3.8,0,6.66-1.01,8.58-3.02,.84-.94,1.27-1.92,1.27-2.95,0-2.06-1.95-3.77-5.84-5.13-.56-.23-3.96-1.2-10.2-2.88-7.17-1.92-12.05-4.24-14.62-6.96-2.06-2.25-3.09-4.9-3.09-7.95Z"/></g><polygon class="cls-1" points="50.74 16.86 62.98 16.86 95.68 70.28 83.68 70.28 50.74 16.86"/><path class="cls-1" d="M73.27,57s-9.62,27.51-29.53,30.79c-25.47,4.21-37.47-12.79-37.47-12.79,0,0,20.69,11.89,36,5,20-9,22-38,22-38l9,15Z"/><path class="cls-1" d="M74.18,31.46S83.81,3.96,103.71,.67c25.47-4.21,37.47,12.79,37.47,12.79,0,0-20.69-11.89-36-5-20,9-22,38-22,38l-9-15Z"/></svg>