<?xml version="1.0" encoding="utf-8"?>
<!-- Generator: Adobe Illustrator 27.7.0, SVG Export Plug-In . SVG Version: 6.00 Build 0)  -->
<svg version="1.1" id="레이어_1" xmlns="http://www.w3.org/2000/svg" xmlns:xlink="http://www.w3.org/1999/xlink" x="0px"
	 y="0px" viewBox="0 0 184.72 163.43" style="enable-background:new 0 0 184.72 163.43;" xml:space="preserve">
<style type="text/css">
	.st0{fill:#FFFFFF;}
</style>
<g>
	<g>
		<path class="st0" d="M48.66,97.83H25.24l5.77-9.28h14.41l-9.14-26.23l-14.91,42.61H9.84l15.68-44.72
			c2.3-6.23,5.88-9.38,10.76-9.42c4.88,0.05,8.44,3.19,10.69,9.42l15.75,44.72H51.19L48.66,97.83z"/>
		<path class="st0" d="M113.28,51.5h10.76v53.44h-10.76V51.5z"/>
		<path class="st0" d="M132.62,66.75c0-4.31,2.01-7.97,6.05-10.97c3.89-2.86,8.53-4.29,13.92-4.29h7.17c4.36,0,8.58,1.01,12.66,3.02
			c1.69,0.89,3.05,1.83,4.08,2.81l-9.42,7.24c-1.55-2.16-3.66-3.4-6.33-3.73c-0.33-0.05-0.66-0.07-0.98-0.07h-7.17
			c-3.52,0-6.16,0.98-7.95,2.95c-0.8,0.98-1.2,1.99-1.2,3.02c0,1.83,1.94,3.4,5.84,4.71c1.22,0.42,3.28,1.01,6.19,1.76
			c7.03,1.83,11.95,3.61,14.77,5.34c4.59,2.81,6.91,6.52,6.96,11.11c0,4.27-2.06,7.9-6.19,10.9c-4.08,2.91-8.91,4.36-14.48,4.36
			h-7.17c-4.55,0-8.95-1.01-13.22-3.02c-1.78-0.89-3.19-1.83-4.22-2.81l9.28-7.17c1.64,2.06,3.94,3.28,6.89,3.66
			c0.47,0.05,0.89,0.07,1.27,0.07h7.17c3.8,0,6.66-1.01,8.58-3.02c0.84-0.94,1.27-1.92,1.27-2.95c0-2.06-1.95-3.77-5.84-5.13
			c-0.56-0.23-3.96-1.2-10.2-2.88c-7.17-1.92-12.05-4.24-14.62-6.96C133.65,72.45,132.62,69.8,132.62,66.75z"/>
	</g>
	<polygon class="st0" points="60.59,51.57 72.82,51.57 105.53,104.98 93.53,104.98 	"/>
	<path class="st0" d="M83.11,91.7c0,0-9.62,27.51-29.53,30.79c-25.47,4.21-37.47-12.79-37.47-12.79s20.69,11.89,36,5
		c20-9,22-38,22-38L83.11,91.7z"/>
	<path class="st0" d="M84.03,66.17c0,0,9.62-27.51,29.53-30.79c25.47-4.21,37.47,12.79,37.47,12.79s-20.69-11.89-36-5
		c-20,9-22,38-22,38L84.03,66.17z"/>
</g>
<g>
</g>
<g>
</g>
<g>
</g>
<g>
</g>
<g>
</g>
<g>
</g>
</svg>
