<?xml version="1.0" encoding="UTF-8"?><svg xmlns="http://www.w3.org/2000/svg" viewBox="0 0 512 512"><defs><style>.cls-1{fill:#fff;}</style></defs><g id="_레이어_2"><rect class="cls-1" width="512" height="512"/></g><g id="_레이어_1"><g><g><path d="M192.43,282.77h-33.18l8.17-13.15h20.42l-12.95-37.16-21.12,60.38h-16.34l22.22-63.37c3.25-8.83,8.33-13.28,15.24-13.35,6.91,.07,11.96,4.52,15.14,13.35l22.32,63.37h-16.34l-3.59-10.06Z"/><path d="M284,217.12h15.24v75.72h-15.24v-75.72Z"/><path d="M311.4,238.74c0-6.11,2.85-11.29,8.57-15.54,5.51-4.05,12.09-6.08,19.73-6.08h10.16c6.18,0,12.15,1.43,17.93,4.28,2.39,1.26,4.32,2.59,5.78,3.99l-13.35,10.26c-2.19-3.05-5.18-4.82-8.97-5.28-.46-.07-.93-.1-1.39-.1h-10.16c-4.98,0-8.73,1.39-11.26,4.18-1.13,1.39-1.69,2.82-1.69,4.28,0,2.59,2.76,4.82,8.27,6.68,1.73,.6,4.65,1.43,8.77,2.49,9.96,2.59,16.94,5.12,20.92,7.57,6.51,3.99,9.8,9.23,9.86,15.74,0,6.04-2.92,11.19-8.77,15.44-5.78,4.12-12.62,6.18-20.52,6.18h-10.16c-6.44,0-12.69-1.43-18.73-4.28-2.53-1.26-4.52-2.59-5.98-3.99l13.15-10.16c2.32,2.92,5.58,4.65,9.76,5.18,.66,.07,1.26,.1,1.79,.1h10.16c5.38,0,9.43-1.43,12.15-4.28,1.2-1.33,1.79-2.72,1.79-4.18,0-2.92-2.76-5.35-8.27-7.27-.8-.33-5.61-1.69-14.45-4.08-10.16-2.72-17.07-6.01-20.72-9.86-2.92-3.19-4.38-6.94-4.38-11.26Z"/></g><polygon points="209.34 217.22 226.67 217.22 273.02 292.91 256.01 292.91 209.34 217.22"/><path d="M241.25,274.09s-13.63,38.98-41.84,43.63c-36.09,5.96-53.1-18.13-53.1-18.13,0,0,29.31,16.85,51.01,7.08,28.34-12.75,31.17-53.84,31.17-53.84l12.75,21.25Z"/><path d="M242.55,237.91s13.63-38.98,41.84-43.63c36.09-5.96,53.1,18.13,53.1,18.13,0,0-29.31-16.85-51.01-7.08-28.34,12.75-31.17,53.84-31.17,53.84l-12.75-21.25Z"/></g></g></svg>